<svg width="35" height="31" viewBox="0 0 35 31" fill="none" xmlns="http://www.w3.org/2000/svg">
<path fill-rule="evenodd" clip-rule="evenodd" d="M5.98372 21.0777C5.89537 21.007 5.80923 20.9353 5.72531 20.8626C4.11712 19.4696 3.32438 17.7113 3.48117 15.5434C3.59833 13.918 4.29171 12.552 5.48719 11.4558C6.41969 10.6006 7.53922 10.092 8.69639 9.92208C7.53932 10.092 6.41991 10.6006 5.48749 11.4558C4.292 12.552 3.59862 13.918 3.48147 15.5434C3.31649 17.8244 4.20274 19.652 5.98401 21.0776C5.9561 21.0955 5.93145 21.1119 5.90872 21.127C5.86591 21.1556 5.82994 21.1795 5.79194 21.2C4.24339 22.0417 2.9953 23.2193 2.00863 24.682C1.04746 26.106 0.434578 27.6573 0.377195 29.4003C0.35727 30.0108 0.773298 30.4756 1.3296 30.5037C1.39562 30.507 1.45951 30.5052 1.52102 30.4984C1.45942 30.5052 1.39543 30.5071 1.3293 30.5038C0.773002 30.4756 0.356974 30.0109 0.376899 29.4003C0.434282 27.6574 1.04717 26.1061 2.00833 24.682C2.97374 23.2509 4.1894 22.0927 5.69191 21.255C5.72501 21.2365 5.75826 21.2182 5.79164 21.2001C5.82964 21.1796 5.8656 21.1556 5.9084 21.1271L5.90842 21.1271C5.93115 21.112 5.9558 21.0955 5.98372 21.0777ZM8.77292 22.2922C9.93084 22.1128 11.0975 22.326 12.2528 22.9084C13.7854 23.6809 14.9323 24.8753 15.7994 26.3533C16.382 27.3464 16.7431 28.408 16.7885 29.5743C16.8076 30.0826 17.2635 30.5127 17.7632 30.5578C17.8652 30.5669 17.9611 30.5639 18.0503 30.5493C17.9612 30.5639 17.8654 30.5668 17.7635 30.5577C17.2638 30.5126 16.8079 30.0825 16.7888 29.5743C16.7434 28.408 16.3823 27.3464 15.7997 26.3533C14.9326 24.8753 13.7857 23.6808 12.2531 22.9084C11.0977 22.3259 9.93093 22.1127 8.77292 22.2922ZM21.0148 17.6773C20.6767 17.7291 20.3982 17.9339 20.3168 18.2167C20.1837 18.6794 20.0555 19.1433 19.9273 19.6073L19.9271 19.608L19.8465 19.8993C19.5324 21.0327 19.2187 22.1663 18.9013 23.3132L18.8953 23.3349C18.6688 24.1536 18.4404 24.9791 18.2086 25.8162L18.0797 26.2812C18.0798 26.2813 18.0799 26.2815 18.0799 26.2816C18.3563 25.2841 18.6275 24.304 18.896 23.3335C19.2153 22.1796 19.5308 21.0393 19.8468 19.8992C19.8737 19.8021 19.9006 19.7049 19.9274 19.6077C20.0557 19.1435 20.1839 18.6796 20.3171 18.2167C20.3985 17.9339 20.6769 17.7292 21.0148 17.6773ZM3.16047 15.5202C2.99848 17.76 3.80879 19.5899 5.43171 21.0327C3.92942 21.8919 2.71095 23.0655 1.74178 24.5022C0.754785 25.9645 0.115335 27.5735 0.0555385 29.3898L0.0555355 29.3899C0.0304144 30.1596 0.566065 30.7871 1.31303 30.8249L1.31329 30.8249C1.68982 30.8437 2.03216 30.7279 2.29 30.4893C2.54583 30.2525 2.69476 29.9171 2.73165 29.536L2.73169 29.5356C2.74135 29.4345 2.74867 29.3387 2.75568 29.247C2.77533 28.99 2.79254 28.7649 2.85208 28.5429L2.85209 28.5428C3.49175 26.1562 4.89366 24.3767 7.04442 23.2215L7.04446 23.2215C8.71176 22.3257 10.4123 22.3406 12.1081 23.1955L12.1081 23.1956C13.5755 23.9351 14.6801 25.0809 15.5221 26.516C16.0827 27.4717 16.4242 28.4822 16.4672 29.5868C16.4933 30.2745 17.0923 30.82 17.7343 30.878L17.7347 30.878C18.036 30.9049 18.3229 30.8485 18.5609 30.6875C18.7998 30.5259 18.9583 30.28 19.0398 29.9857C20.0839 26.2218 21.1272 22.4578 22.1665 18.6929C22.2115 18.531 22.2258 18.3374 22.1866 18.1584L22.1864 18.1577C22.0825 17.6884 21.6856 17.3559 21.2255 17.3436C20.702 17.3288 20.1575 17.608 20.0078 18.1277L20.0078 18.1278C19.8742 18.5924 19.7454 19.0582 19.6172 19.5223L19.6171 19.5226L19.5367 19.8134C19.2206 20.9538 18.9049 22.0947 18.5855 23.2491L17.9892 25.4034C16.9612 23.548 15.5707 22.096 13.7727 21.0363C16.7049 18.4654 16.6982 14.1959 14.3494 11.6494L14.3493 11.6494C11.9189 9.01459 7.8931 8.81302 5.26989 11.2188C4.01712 12.3676 3.28385 13.8088 3.16047 15.5202ZM13.6938 16.0444C13.689 13.7408 11.8527 11.9036 9.55741 11.906C9.36247 11.9062 9.17065 11.9205 8.98289 11.9481C9.17075 11.9205 9.36267 11.9061 9.55771 11.906C11.853 11.9036 13.6893 13.7408 13.6941 16.0444C13.6983 18.0912 12.2516 19.7768 10.3227 20.1226C12.2514 19.7767 13.6981 18.0911 13.6938 16.0444ZM9.59875 19.8661C7.51845 19.8712 5.81626 18.1744 5.81112 16.0871C5.80595 13.9587 7.49932 12.2291 9.55765 12.2276L9.55775 12.2276C11.6745 12.2253 13.3678 13.9179 13.3723 16.0451C13.3767 18.1652 11.6978 19.8602 9.59875 19.8661Z" fill="#EE1C46"/>
<path fill-rule="evenodd" clip-rule="evenodd" d="M18.2787 6.53483C21.2233 6.53 24.1679 6.52839 27.1126 6.53081C27.6888 6.53161 28.0698 6.93192 28.0594 7.50057C28.0493 8.04528 27.6926 8.41102 27.1507 8.43008C27.6928 8.41119 28.0497 8.04541 28.0598 7.50055C28.0702 6.93191 27.6892 6.5316 27.113 6.53079C24.1682 6.52838 21.2234 6.52999 18.2787 6.53482L18.2755 6.21329C21.2214 6.20845 24.1673 6.20684 27.1133 6.20926L27.1135 6.20926C27.4782 6.20977 27.8041 6.33832 28.0373 6.57896C28.27 6.81912 28.3878 7.14751 28.3813 7.50641L28.3813 7.50651C28.3748 7.85822 28.2516 8.17505 28.0174 8.40463C27.7832 8.63418 27.4632 8.75187 27.1087 8.75238H27.1086C26.0109 8.75358 24.9136 8.75343 23.8162 8.75328L22.7192 8.75318H22.3977V8.75078L21.2466 8.75094H21.2457C20.264 8.75112 19.2822 8.7513 18.3005 8.75076L18.2973 8.42924C18.2973 8.42924 18.2973 8.42924 18.2973 8.42924L18.3005 8.75076C17.5827 8.75068 17.073 8.21219 17.0627 7.49959L17.0627 7.49958C17.0524 6.79184 17.5501 6.21441 18.2755 6.21329L18.2786 6.53482C18.2778 6.53482 18.2769 6.53482 18.276 6.53482C18.2646 6.53484 18.2533 6.53505 18.242 6.53544C18.2531 6.53506 18.2643 6.53485 18.2756 6.53484C18.2766 6.53483 18.2776 6.53483 18.2786 6.53483L18.2786 6.53482C18.2786 6.53482 18.2787 6.53482 18.2787 6.53482L18.2787 6.53483Z" fill="#EE1C46"/>
<path fill-rule="evenodd" clip-rule="evenodd" d="M22.7786 13.3418L22.7788 13.3418C23.2825 13.3446 23.7866 13.3439 24.2895 13.3433C24.5126 13.343 24.7355 13.3426 24.958 13.3426C25.202 13.3426 25.4466 13.343 25.6915 13.3434L25.6918 13.3434H25.6918C26.1828 13.3441 26.6749 13.3448 27.1662 13.3426L27.1668 13.3426C27.8733 13.3382 28.3669 12.8023 28.3805 12.1046L28.0552 12.1765C28.0552 12.1765 28.0552 12.1765 28.0552 12.1764L28.3805 12.1046C28.3948 11.4024 27.9064 10.8143 27.1769 10.8108C25.7046 10.8028 24.2322 10.8028 22.7598 10.8108C22.4142 10.8124 22.1088 10.9421 21.8914 11.1783C21.6764 11.412 21.5679 11.7273 21.5664 12.0685L21.5664 12.0685C21.5649 12.418 21.6783 12.7376 21.8987 12.973C22.1206 13.2099 22.4309 13.3397 22.7786 13.3418ZM22.7158 11.1335C22.215 11.1576 21.8905 11.5367 21.8882 12.0699C21.8858 12.628 22.2477 13.0171 22.7809 13.0203C23.2634 13.023 23.7455 13.0224 24.2278 13.0218L24.2278 13.0218C23.7454 13.0225 23.2632 13.023 22.7806 13.0203C22.2474 13.0171 21.8856 12.6281 21.888 12.0699C21.8903 11.5366 22.2148 11.1574 22.7158 11.1335ZM24.2278 13.0218L22.7788 13.3418L24.2278 13.0218C24.2278 13.0218 24.2278 13.0218 24.2278 13.0218ZM24.2279 13.0218L24.2278 13.0218C24.2478 13.0218 24.2678 13.0218 24.2878 13.0217L24.2888 13.0217C24.5118 13.0214 24.7348 13.0211 24.958 13.0211C25.2032 13.0211 25.4484 13.0215 25.6936 13.0218C26.184 13.0225 26.6744 13.0233 27.1648 13.0211C27.18 13.021 27.1951 13.0206 27.2101 13.0199C27.1952 13.0206 27.1802 13.021 27.1651 13.0211C26.6747 13.0232 26.1843 13.0225 25.6938 13.0218C25.4486 13.0215 25.2034 13.0211 24.9582 13.0211C24.7348 13.0211 24.5114 13.0214 24.2881 13.0217C24.268 13.0217 24.2479 13.0218 24.2279 13.0218Z" fill="#EE1C46"/>
<path fill-rule="evenodd" clip-rule="evenodd" d="M0.0537109 6.85402C0.0537109 3.30245 2.93283 0.42334 6.4844 0.42334H27.7426C31.2941 0.42334 34.1733 3.30245 34.1733 6.85402V24.4537C34.1733 28.0053 31.2941 30.8844 27.7426 30.8844H22.8198C22.1095 30.8844 21.5337 30.3086 21.5337 29.5982C21.5337 28.8879 22.1095 28.3121 22.8198 28.3121H27.7426C29.8735 28.3121 31.601 26.5846 31.601 24.4537V6.85402C31.601 4.72308 29.8735 2.99561 27.7426 2.99561H6.4844C4.35345 2.99561 2.62598 4.72308 2.62598 6.85402V8.68167C2.62598 9.39198 2.05016 9.96781 1.33985 9.96781C0.629534 9.96781 0.0537109 9.39198 0.0537109 8.68167V6.85402Z" fill="#FBA2B4"/>
</svg>
