 <svg xmlns="http://www.w3.org/2000/svg" xmlns:xlink="http://www.w3.org/1999/xlink" version="1.1" x="0px" y="0px" viewBox="0 0 90 90" style="enable-background:new 0 0 90 90;" xml:space="preserve"  width="100%" height="100%" class="" fill="rgba(26, 168, 87, 1)"><g><path d="M44.2,63.8c-4.3,0-7.7,3.5-7.7,7.7c0,4.3,3.5,7.7,7.7,7.7c4.3,0,7.7-3.5,7.7-7.7C52,67.3,48.5,63.8,44.2,63.8z M44.2,74.8   c-1.8,0-3.2-1.4-3.2-3.2c0-1.8,1.4-3.2,3.2-3.2s3.2,1.4,3.2,3.2C47.4,73.4,46,74.8,44.2,74.8z"></path><path d="M69.1,0.8H20.6c-11.1,0-20.1,9-20.1,20.1v48.5c0,11.1,9,20.1,20.1,20.1h48.5c11.1,0,20.1-9,20.1-20.1V20.8   C89.1,9.8,80.1,0.8,69.1,0.8z M85,21.1v48c0,8.9-7.3,16.2-16.2,16.2h-48C11.9,85.3,4.6,78,4.6,69v-48c0-8.9,7.3-16.2,16.2-16.2h48   C77.7,4.9,85,12.1,85,21.1z"></path><path d="M48.5,13.3c-8.5-1.1-17.1,2.7-22.1,9.8c-1.1,1.5-1.5,3.3-1.1,5.1c0.3,1.8,1.3,3.4,2.8,4.4c1.5,1.1,3.3,1.5,5.1,1.1   c1.8-0.3,3.4-1.3,4.4-2.8c2.3-3.3,6.2-4.4,9-4c1.3,0.2,3.1,0.8,3.7,2.5c0.3,0.9,1,2.9-3.5,5.6c-8,4.8-9.7,10.3-9.7,14v4.5   c0,3.8,3.1,6.9,6.9,6.9s6.9-3.1,6.9-6.9v-4.1c0.3-0.4,1.1-1.3,3-2.5c8.8-5.3,12.4-13.8,9.3-22.1C61.1,18.5,55.6,14.2,48.5,13.3z    M51.7,43c-3.4,2-5.2,4.2-5.2,6.1v4.5c0,1.3-1.1,2.4-2.4,2.4c-1.3,0-2.4-1.1-2.4-2.4V49c0-3.6,2.6-7.1,7.5-10.1   c6.4-3.8,6.5-8.1,5.4-11c-1.1-3-3.8-5-7.4-5.4c-0.5-0.1-1-0.1-1.6-0.1c-3.9,0-8.7,1.8-11.7,6c-0.4,0.5-0.9,0.9-1.5,1   c-0.6,0.1-1.2,0-1.8-0.4c-0.5-0.4-0.9-0.9-1-1.5c-0.1-0.6,0-1.2,0.4-1.8c4-5.7,11-8.8,17.8-7.9c5.3,0.7,9.5,3.9,11.2,8.5   C61.5,32.7,58.8,38.7,51.7,43z"></path></g></svg>